<svg xmlns="http://www.w3.org/2000/svg" viewBox="0 0 98 180" role="img" aria-label="Kangaroo logo">
  <defs>
    <linearGradient id="kangaroo-fur" x1="18" y1="10" x2="88" y2="170" gradientUnits="userSpaceOnUse">
      <stop offset="0" stop-color="#f8dfb6"/>
      <stop offset="0.45" stop-color="#d78a39"/>
      <stop offset="1" stop-color="#8f4d20"/>
    </linearGradient>
  </defs>
  <path d="M45 0h4v1H45zM44 1h6v1H44zM44 2h7v1H44zM44 3h9v1H44zM44 4h10v1H44zM85 4h2v1H85zM44 5h10v1H44zM84 5h3v1H84zM44 6h11v1H44zM82 6h5v1H82zM44 7h11v1H44zM81 7h6v1H81zM44 8h12v1H44zM80 8h7v1H80zM44 9h12v1H44zM79 9h7v1H79zM44 10h12v1H44zM78 10h8v1H78zM44 11h12v1H44zM77 11h9v1H77zM45 12h12v1H45zM75 12h10v1H75zM45 13h12v1H45zM73 13h11v1H73zM45 14h12v1H45zM72 14h12v1H72zM46 15h11v1H46zM70 15h13v1H70zM46 16h12v1H46zM68 16h14v1H68zM47 17h12v1H47zM66 17h15v1H66zM47 18h13v1H47zM63 18h17v1H63zM48 19h31v1H48zM48 20h30v1H48zM48 21h29v1H48zM47 22h28v1H47zM47 23h27v1H47zM47 24h26v1H47zM47 25h26v1H47zM47 26h25v1H47zM46 27h25v1H46zM46 28h24v1H46zM46 29h24v1H46zM46 30h25v1H46zM46 31h25v1H46zM46 32h25v1H46zM46 33h25v1H46zM46 34h25v1H46zM46 35h24v1H46zM45 36h25v1H45zM45 37h25v1H45zM46 38h24v1H46zM46 39h24v1H46zM45 40h25v1H45zM45 41h25v1H45zM44 42h25v1H44zM43 43h25v1H43zM43 44h25v1H43zM41 45h26v1H41zM40 46h27v1H40zM40 47h27v1H40zM39 48h28v1H39zM38 49h29v1H38zM38 50h30v1H38zM37 51h31v1H37zM36 52h32v1H36zM36 53h33v1H36zM35 54h34v1H35zM35 55h35v1H35zM35 56h35v1H35zM35 57h35v1H35zM34 58h36v1H34zM34 59h37v1H34zM34 60h37v1H34zM34 61h38v1H34zM34 62h38v1H34zM34 63h38v1H34zM33 64h40v1H33zM33 65h40v1H33zM33 66h41v1H33zM33 67h42v1H33zM33 68h43v1H33zM32 69h45v1H32zM33 70h45v1H33zM33 71h46v1H33zM33 72h46v1H33zM33 73h47v1H33zM34 74h47v1H34zM34 75h48v1H34zM34 76h49v1H34zM35 77h48v1H35zM35 78h49v1H35zM36 79h49v1H36zM35 80h51v1H35zM35 81h51v1H35zM35 82h52v1H35zM35 83h53v1H35zM35 84h53v1H35zM35 85h53v1H35zM35 86h54v1H35zM35 87h54v1H35zM35 88h55v1H35zM35 89h55v1H35zM35 90h55v1H35zM35 91h55v1H35zM36 92h55v1H36zM35 93h56v1H35zM35 94h57v1H35zM35 95h57v1H35zM35 96h57v1H35zM35 97h58v1H35zM34 98h59v1H34zM34 99h59v1H34zM34 100h60v1H34zM34 101h60v1H34zM34 102h60v1H34zM34 103h61v1H34zM33 104h62v1H33zM33 105h62v1H33zM33 106h62v1H33zM33 107h63v1H33zM33 108h63v1H33zM33 109h63v1H33zM33 110h63v1H33zM33 111h63v1H33zM33 112h63v1H33zM33 113h64v1H33zM33 114h64v1H33zM33 115h64v1H33zM33 116h64v1H33zM33 117h64v1H33zM33 118h64v1H33zM33 119h64v1H33zM34 120h63v1H34zM34 121h62v1H34zM34 122h62v1H34zM35 123h61v1H35zM35 124h60v1H35zM35 125h60v1H35zM35 126h59v1H35zM35 127h59v1H35zM35 128h58v1H35zM35 129h57v1H35zM36 130h55v1H36zM36 131h15v1H36zM52 131h39v1H52zM36 132h14v1H36zM53 132h38v1H53zM35 133h14v1H35zM56 133h34v1H56zM35 134h13v1H35zM59 134h32v1H59zM36 135h12v1H36zM59 135h31v1H59zM35 136h13v1H35zM60 136h30v1H60zM35 137h12v1H35zM62 137h28v1H62zM35 138h12v1H35zM63 138h27v1H63zM35 139h12v1H35zM64 139h26v1H64zM35 140h12v1H35zM64 140h26v1H64zM35 141h12v1H35zM65 141h25v1H65zM35 142h12v1H35zM66 142h24v1H66zM36 143h11v1H36zM66 143h24v1H66zM36 144h10v1H36zM66 144h2v1H66zM72 144h18v1H72zM35 145h12v1H35zM72 145h17v1H72zM36 146h10v1H36zM73 146h17v1H73zM35 147h11v1H35zM73 147h17v1H73zM35 148h11v1H35zM73 148h17v1H73zM35 149h11v1H35zM73 149h17v1H73zM35 150h11v1H35zM73 150h17v1H73zM35 151h11v1H35zM73 151h17v1H73zM35 152h11v1H35zM73 152h17v1H73zM35 153h11v1H35zM73 153h17v1H73zM35 154h11v1H35zM73 154h17v1H73zM35 155h11v1H35zM73 155h17v1H73zM36 156h10v1H36zM72 156h18v1H72zM36 157h10v1H36zM72 157h18v1H72zM35 158h11v1H35zM72 158h18v1H72zM35 159h11v1H35zM72 159h19v1H72zM35 160h11v1H35zM72 160h23v1H72zM35 161h11v1H35zM71 161h25v1H71zM35 162h11v1H35zM71 162h25v1H71zM34 163h12v1H34zM70 163h9v1H70zM80 163h17v1H80zM34 164h12v1H34zM70 164h9v1H70zM81 164h16v1H81zM34 165h12v1H34zM70 165h9v1H70zM82 165h16v1H82zM34 166h12v1H34zM69 166h10v1H69zM83 166h15v1H83zM33 167h13v1H33zM69 167h10v1H69zM83 167h15v1H83zM20 168h27v1H20zM68 168h12v1H68zM84 168h14v1H84zM17 169h30v1H17zM63 169h17v1H63zM85 169h11v1H85zM12 170h35v1H12zM60 170h20v1H60zM86 170h8v1H86zM10 171h37v1H10zM55 171h25v1H55zM86 171h3v1H86zM8 172h39v1H8zM52 172h28v1H52zM3 173h43v1H3zM50 173h29v1H50zM2 174h43v1H2zM49 174h28v1H49zM1 175h42v1H1zM48 175h28v1H48zM1 176h20v1H1zM31 176h1v1H31zM48 176h17v1H48zM68 176h5v1H68zM0 177h19v1H0zM47 177h16v1H47zM4 178h1v1H4zM47 178h13v1H47zM48 179h6v1H48z" fill="url(#kangaroo-fur)"/>
</svg>
